<mxfile host="app.diagrams.net" agent="Mozilla/5.0 (Windows NT 10.0; Win64; x64) AppleWebKit/537.36 (KHTML, like Gecko) Chrome/140.0.0.0 Safari/537.36" version="28.2.5">
  <diagram name="PÃ¡gina-1" id="it2uSCeBStRa8zQNsPdC">
    <mxGraphModel dx="1398" dy="765" grid="1" gridSize="10" guides="1" tooltips="1" connect="1" arrows="1" fold="1" page="1" pageScale="1" pageWidth="827" pageHeight="1169" math="0" shadow="0">
      <root>
        <mxCell id="0" />
        <mxCell id="1" parent="0" />
        <mxCell id="ICYx0-klbOHn4qreJ30I-1" value="&lt;div style=&quot;background-color:#1e1f22;color:#bcbec4&quot;&gt;&lt;pre style=&quot;font-family:&#39;JetBrains Mono&#39;,monospace;font-size:9,8pt;&quot;&gt;MetodoComRetorno&lt;/pre&gt;&lt;/div&gt;" style="swimlane;fontStyle=0;align=center;verticalAlign=top;childLayout=stackLayout;horizontal=1;startSize=55;horizontalStack=0;resizeParent=1;resizeParentMax=0;resizeLast=0;collapsible=0;marginBottom=0;html=1;whiteSpace=wrap;" vertex="1" parent="1">
          <mxGeometry x="290" y="10" width="220" height="120" as="geometry" />
        </mxCell>
        <mxCell id="ICYx0-klbOHn4qreJ30I-5" value="..." style="text;html=1;strokeColor=none;fillColor=none;align=left;verticalAlign=middle;spacingLeft=4;spacingRight=4;overflow=hidden;rotatable=0;points=[[0,0.5],[1,0.5]];portConstraint=eastwest;whiteSpace=wrap;" vertex="1" parent="ICYx0-klbOHn4qreJ30I-1">
          <mxGeometry y="55" width="220" height="20" as="geometry" />
        </mxCell>
        <mxCell id="ICYx0-klbOHn4qreJ30I-6" value="" style="line;strokeWidth=1;fillColor=none;align=left;verticalAlign=middle;spacingTop=-1;spacingLeft=3;spacingRight=3;rotatable=0;labelPosition=right;points=[];portConstraint=eastwest;" vertex="1" parent="ICYx0-klbOHn4qreJ30I-1">
          <mxGeometry y="75" width="220" height="8" as="geometry" />
        </mxCell>
        <mxCell id="ICYx0-klbOHn4qreJ30I-8" value="+&amp;nbsp;&lt;span style=&quot;font-family: &amp;quot;JetBrains Mono&amp;quot;, monospace; background-color: rgb(30, 31, 34); color: rgb(86, 168, 245);&quot;&gt;nomeAluno&lt;/span&gt;&lt;span style=&quot;font-family: &amp;quot;JetBrains Mono&amp;quot;, monospace; background-color: rgb(30, 31, 34); color: rgb(188, 190, 196);&quot;&gt;(): String&lt;/span&gt;&lt;div&gt;&lt;span style=&quot;font-family: &amp;quot;JetBrains Mono&amp;quot;, monospace; background-color: rgb(30, 31, 34); color: rgb(188, 190, 196);&quot;&gt;+ main(args: String[]): void&amp;nbsp;&lt;/span&gt;&lt;/div&gt;" style="text;html=1;strokeColor=none;fillColor=none;align=left;verticalAlign=middle;spacingLeft=4;spacingRight=4;overflow=hidden;rotatable=0;points=[[0,0.5],[1,0.5]];portConstraint=eastwest;whiteSpace=wrap;" vertex="1" parent="ICYx0-klbOHn4qreJ30I-1">
          <mxGeometry y="83" width="220" height="37" as="geometry" />
        </mxCell>
        <mxCell id="ICYx0-klbOHn4qreJ30I-9" value="&lt;div style=&quot;background-color: rgb(30, 31, 34); color: rgb(188, 190, 196);&quot;&gt;&lt;pre style=&quot;font-family:&#39;JetBrains Mono&#39;,monospace;font-size:9,8pt;&quot;&gt;&lt;div style=&quot;background-color:#1e1f22;color:#bcbec4&quot;&gt;&lt;pre style=&quot;font-family:&#39;JetBrains Mono&#39;,monospace;font-size:9,8pt;&quot;&gt;MetodosComParametros&lt;/pre&gt;&lt;/div&gt;&lt;/pre&gt;&lt;/div&gt;" style="swimlane;fontStyle=0;align=center;verticalAlign=top;childLayout=stackLayout;horizontal=1;startSize=55;horizontalStack=0;resizeParent=1;resizeParentMax=0;resizeLast=0;collapsible=0;marginBottom=0;html=1;whiteSpace=wrap;" vertex="1" parent="1">
          <mxGeometry x="21" y="10" width="259" height="120" as="geometry" />
        </mxCell>
        <mxCell id="ICYx0-klbOHn4qreJ30I-13" value="..." style="text;html=1;strokeColor=none;fillColor=none;align=left;verticalAlign=middle;spacingLeft=4;spacingRight=4;overflow=hidden;rotatable=0;points=[[0,0.5],[1,0.5]];portConstraint=eastwest;whiteSpace=wrap;" vertex="1" parent="ICYx0-klbOHn4qreJ30I-9">
          <mxGeometry y="55" width="259" height="20" as="geometry" />
        </mxCell>
        <mxCell id="ICYx0-klbOHn4qreJ30I-14" value="" style="line;strokeWidth=1;fillColor=none;align=left;verticalAlign=middle;spacingTop=-1;spacingLeft=3;spacingRight=3;rotatable=0;labelPosition=right;points=[];portConstraint=eastwest;" vertex="1" parent="ICYx0-klbOHn4qreJ30I-9">
          <mxGeometry y="75" width="259" height="8" as="geometry" />
        </mxCell>
        <mxCell id="ICYx0-klbOHn4qreJ30I-16" value="+&amp;nbsp;&lt;span style=&quot;color: rgb(86, 168, 245); font-family: &amp;quot;JetBrains Mono&amp;quot;, monospace; background-color: rgb(30, 31, 34);&quot;&gt;imprimirNome():(nome : String): void&lt;/span&gt;&lt;div&gt;&lt;span style=&quot;color: rgb(86, 168, 245); font-family: &amp;quot;JetBrains Mono&amp;quot;, monospace; background-color: rgb(30, 31, 34);&quot;&gt;+ main (args String[]): void&lt;/span&gt;&lt;/div&gt;" style="text;html=1;strokeColor=none;fillColor=none;align=left;verticalAlign=middle;spacingLeft=4;spacingRight=4;overflow=hidden;rotatable=0;points=[[0,0.5],[1,0.5]];portConstraint=eastwest;whiteSpace=wrap;" vertex="1" parent="ICYx0-klbOHn4qreJ30I-9">
          <mxGeometry y="83" width="259" height="37" as="geometry" />
        </mxCell>
        <mxCell id="ICYx0-klbOHn4qreJ30I-17" value="&lt;div style=&quot;background-color:#1e1f22;color:#bcbec4&quot;&gt;&lt;pre style=&quot;font-family:&#39;JetBrains Mono&#39;,monospace;font-size:9,8pt;&quot;&gt;MetodoComRetornoEParametros&lt;/pre&gt;&lt;/div&gt;" style="swimlane;fontStyle=0;align=center;verticalAlign=top;childLayout=stackLayout;horizontal=1;startSize=55;horizontalStack=0;resizeParent=1;resizeParentMax=0;resizeLast=0;collapsible=0;marginBottom=0;html=1;whiteSpace=wrap;" vertex="1" parent="1">
          <mxGeometry x="530" y="10" width="230" height="120" as="geometry" />
        </mxCell>
        <mxCell id="ICYx0-klbOHn4qreJ30I-21" value="..." style="text;html=1;strokeColor=none;fillColor=none;align=left;verticalAlign=middle;spacingLeft=4;spacingRight=4;overflow=hidden;rotatable=0;points=[[0,0.5],[1,0.5]];portConstraint=eastwest;whiteSpace=wrap;" vertex="1" parent="ICYx0-klbOHn4qreJ30I-17">
          <mxGeometry y="55" width="230" height="20" as="geometry" />
        </mxCell>
        <mxCell id="ICYx0-klbOHn4qreJ30I-22" value="" style="line;strokeWidth=1;fillColor=none;align=left;verticalAlign=middle;spacingTop=-1;spacingLeft=3;spacingRight=3;rotatable=0;labelPosition=right;points=[];portConstraint=eastwest;" vertex="1" parent="ICYx0-klbOHn4qreJ30I-17">
          <mxGeometry y="75" width="230" height="8" as="geometry" />
        </mxCell>
        <mxCell id="ICYx0-klbOHn4qreJ30I-24" value="+ multiplicar (x: int , int y): int&lt;div&gt;+ main (String [ ]): void&lt;/div&gt;" style="text;html=1;strokeColor=none;fillColor=none;align=left;verticalAlign=middle;spacingLeft=4;spacingRight=4;overflow=hidden;rotatable=0;points=[[0,0.5],[1,0.5]];portConstraint=eastwest;whiteSpace=wrap;" vertex="1" parent="ICYx0-klbOHn4qreJ30I-17">
          <mxGeometry y="83" width="230" height="37" as="geometry" />
        </mxCell>
        <mxCell id="ICYx0-klbOHn4qreJ30I-26" value="&lt;div style=&quot;background-color:#1e1f22;color:#bcbec4&quot;&gt;&lt;pre style=&quot;font-family:&#39;JetBrains Mono&#39;,monospace;font-size:9,8pt;&quot;&gt;metodosContrutoresEDestrutores&lt;/pre&gt;&lt;/div&gt;" style="swimlane;fontStyle=0;align=center;verticalAlign=top;childLayout=stackLayout;horizontal=1;startSize=55;horizontalStack=0;resizeParent=1;resizeParentMax=0;resizeLast=0;collapsible=0;marginBottom=0;html=1;whiteSpace=wrap;" vertex="1" parent="1">
          <mxGeometry x="50" y="200" width="280" height="170" as="geometry" />
        </mxCell>
        <mxCell id="ICYx0-klbOHn4qreJ30I-28" value="- nome: String" style="text;html=1;strokeColor=none;fillColor=none;align=left;verticalAlign=middle;spacingLeft=4;spacingRight=4;overflow=hidden;rotatable=0;points=[[0,0.5],[1,0.5]];portConstraint=eastwest;whiteSpace=wrap;" vertex="1" parent="ICYx0-klbOHn4qreJ30I-26">
          <mxGeometry y="55" width="280" height="20" as="geometry" />
        </mxCell>
        <mxCell id="ICYx0-klbOHn4qreJ30I-31" value="" style="line;strokeWidth=1;fillColor=none;align=left;verticalAlign=middle;spacingTop=-1;spacingLeft=3;spacingRight=3;rotatable=0;labelPosition=right;points=[];portConstraint=eastwest;" vertex="1" parent="ICYx0-klbOHn4qreJ30I-26">
          <mxGeometry y="75" width="280" height="8" as="geometry" />
        </mxCell>
        <mxCell id="ICYx0-klbOHn4qreJ30I-33" value="&lt;div&gt;&amp;nbsp;+ metodosContrutoresEDestrutores(nome: String)&lt;/div&gt;&lt;div&gt;&amp;nbsp;+ exibirAluno(): void&amp;nbsp; &amp;nbsp; &amp;nbsp; &amp;nbsp; &amp;nbsp; &amp;nbsp; &amp;nbsp; &amp;nbsp; &amp;nbsp; &amp;nbsp; &amp;nbsp; &amp;nbsp; &amp;nbsp;&amp;nbsp;&lt;/div&gt;&lt;div&gt;&amp;nbsp;+ main(args: String[]): void&amp;nbsp;&lt;/div&gt;" style="text;html=1;strokeColor=none;fillColor=none;align=left;verticalAlign=middle;spacingLeft=4;spacingRight=4;overflow=hidden;rotatable=0;points=[[0,0.5],[1,0.5]];portConstraint=eastwest;whiteSpace=wrap;" vertex="1" parent="ICYx0-klbOHn4qreJ30I-26">
          <mxGeometry y="83" width="280" height="87" as="geometry" />
        </mxCell>
        <mxCell id="ICYx0-klbOHn4qreJ30I-34" value="&lt;div style=&quot;background-color:#1e1f22;color:#bcbec4&quot;&gt;&lt;pre style=&quot;font-family:&#39;JetBrains Mono&#39;,monospace;font-size:9,8pt;&quot;&gt;Destrutores&lt;/pre&gt;&lt;/div&gt;" style="swimlane;fontStyle=0;align=center;verticalAlign=top;childLayout=stackLayout;horizontal=1;startSize=55;horizontalStack=0;resizeParent=1;resizeParentMax=0;resizeLast=0;collapsible=0;marginBottom=0;html=1;whiteSpace=wrap;" vertex="1" parent="1">
          <mxGeometry x="360" y="200" width="170" height="130" as="geometry" />
        </mxCell>
        <mxCell id="ICYx0-klbOHn4qreJ30I-38" value="..." style="text;html=1;strokeColor=none;fillColor=none;align=left;verticalAlign=middle;spacingLeft=4;spacingRight=4;overflow=hidden;rotatable=0;points=[[0,0.5],[1,0.5]];portConstraint=eastwest;whiteSpace=wrap;" vertex="1" parent="ICYx0-klbOHn4qreJ30I-34">
          <mxGeometry y="55" width="170" height="20" as="geometry" />
        </mxCell>
        <mxCell id="ICYx0-klbOHn4qreJ30I-39" value="" style="line;strokeWidth=1;fillColor=none;align=left;verticalAlign=middle;spacingTop=-1;spacingLeft=3;spacingRight=3;rotatable=0;labelPosition=right;points=[];portConstraint=eastwest;" vertex="1" parent="ICYx0-klbOHn4qreJ30I-34">
          <mxGeometry y="75" width="170" height="8" as="geometry" />
        </mxCell>
        <mxCell id="ICYx0-klbOHn4qreJ30I-41" value="# finalize( ) : void&lt;div&gt;+ main (args: String [ ] ): void&lt;/div&gt;" style="text;html=1;strokeColor=none;fillColor=none;align=left;verticalAlign=middle;spacingLeft=4;spacingRight=4;overflow=hidden;rotatable=0;points=[[0,0.5],[1,0.5]];portConstraint=eastwest;whiteSpace=wrap;" vertex="1" parent="ICYx0-klbOHn4qreJ30I-34">
          <mxGeometry y="83" width="170" height="47" as="geometry" />
        </mxCell>
        <mxCell id="ICYx0-klbOHn4qreJ30I-42" value="&lt;div style=&quot;background-color:#1e1f22;color:#bcbec4&quot;&gt;&lt;pre style=&quot;font-family:&#39;JetBrains Mono&#39;,monospace;font-size:9,8pt;&quot;&gt;MetodosEspeciais&lt;/pre&gt;&lt;/div&gt;" style="swimlane;fontStyle=0;align=center;verticalAlign=top;childLayout=stackLayout;horizontal=1;startSize=55;horizontalStack=0;resizeParent=1;resizeParentMax=0;resizeLast=0;collapsible=0;marginBottom=0;html=1;whiteSpace=wrap;" vertex="1" parent="1">
          <mxGeometry x="570" y="194" width="220" height="150" as="geometry" />
        </mxCell>
        <mxCell id="ICYx0-klbOHn4qreJ30I-46" value="..." style="text;html=1;strokeColor=none;fillColor=none;align=left;verticalAlign=middle;spacingLeft=4;spacingRight=4;overflow=hidden;rotatable=0;points=[[0,0.5],[1,0.5]];portConstraint=eastwest;whiteSpace=wrap;" vertex="1" parent="ICYx0-klbOHn4qreJ30I-42">
          <mxGeometry y="55" width="220" height="20" as="geometry" />
        </mxCell>
        <mxCell id="ICYx0-klbOHn4qreJ30I-47" value="" style="line;strokeWidth=1;fillColor=none;align=left;verticalAlign=middle;spacingTop=-1;spacingLeft=3;spacingRight=3;rotatable=0;labelPosition=right;points=[];portConstraint=eastwest;" vertex="1" parent="ICYx0-klbOHn4qreJ30I-42">
          <mxGeometry y="75" width="220" height="8" as="geometry" />
        </mxCell>
        <mxCell id="ICYx0-klbOHn4qreJ30I-49" value="&lt;div&gt;+ mensagemEstatica( ): void {static}&lt;/div&gt;&lt;div&gt;+ main (args: String[ ]): void&lt;/div&gt;" style="text;html=1;strokeColor=none;fillColor=none;align=left;verticalAlign=middle;spacingLeft=4;spacingRight=4;overflow=hidden;rotatable=0;points=[[0,0.5],[1,0.5]];portConstraint=eastwest;whiteSpace=wrap;" vertex="1" parent="ICYx0-klbOHn4qreJ30I-42">
          <mxGeometry y="83" width="220" height="67" as="geometry" />
        </mxCell>
        <mxCell id="ICYx0-klbOHn4qreJ30I-50" value="&lt;div style=&quot;background-color:#1e1f22;color:#bcbec4&quot;&gt;&lt;pre style=&quot;font-family:&#39;JetBrains Mono&#39;,monospace;font-size:9,8pt;&quot;&gt;MetodosGettersESetters&lt;/pre&gt;&lt;/div&gt;" style="swimlane;fontStyle=0;align=center;verticalAlign=top;childLayout=stackLayout;horizontal=1;startSize=55;horizontalStack=0;resizeParent=1;resizeParentMax=0;resizeLast=0;collapsible=0;marginBottom=0;html=1;whiteSpace=wrap;" vertex="1" parent="1">
          <mxGeometry x="40" y="420" width="180" height="150" as="geometry" />
        </mxCell>
        <mxCell id="ICYx0-klbOHn4qreJ30I-52" value="- nome: String" style="text;html=1;strokeColor=none;fillColor=none;align=left;verticalAlign=middle;spacingLeft=4;spacingRight=4;overflow=hidden;rotatable=0;points=[[0,0.5],[1,0.5]];portConstraint=eastwest;whiteSpace=wrap;" vertex="1" parent="ICYx0-klbOHn4qreJ30I-50">
          <mxGeometry y="55" width="180" height="20" as="geometry" />
        </mxCell>
        <mxCell id="ICYx0-klbOHn4qreJ30I-55" value="" style="line;strokeWidth=1;fillColor=none;align=left;verticalAlign=middle;spacingTop=-1;spacingLeft=3;spacingRight=3;rotatable=0;labelPosition=right;points=[];portConstraint=eastwest;" vertex="1" parent="ICYx0-klbOHn4qreJ30I-50">
          <mxGeometry y="75" width="180" height="8" as="geometry" />
        </mxCell>
        <mxCell id="ICYx0-klbOHn4qreJ30I-57" value="+ setNome(nome: String ): void&lt;div&gt;+ getNome(): String&lt;/div&gt;&lt;div&gt;+ main(args String[ ] ): void&lt;/div&gt;" style="text;html=1;strokeColor=none;fillColor=none;align=left;verticalAlign=middle;spacingLeft=4;spacingRight=4;overflow=hidden;rotatable=0;points=[[0,0.5],[1,0.5]];portConstraint=eastwest;whiteSpace=wrap;" vertex="1" parent="ICYx0-klbOHn4qreJ30I-50">
          <mxGeometry y="83" width="180" height="67" as="geometry" />
        </mxCell>
        <mxCell id="ICYx0-klbOHn4qreJ30I-58" value="&lt;div style=&quot;background-color:#1e1f22;color:#bcbec4&quot;&gt;&lt;pre style=&quot;font-family:&#39;JetBrains Mono&#39;,monospace;font-size:9,8pt;&quot;&gt;MetodoSimples&lt;/pre&gt;&lt;/div&gt;" style="swimlane;fontStyle=0;align=center;verticalAlign=top;childLayout=stackLayout;horizontal=1;startSize=55;horizontalStack=0;resizeParent=1;resizeParentMax=0;resizeLast=0;collapsible=0;marginBottom=0;html=1;whiteSpace=wrap;" vertex="1" parent="1">
          <mxGeometry x="274" y="430" width="166" height="150" as="geometry" />
        </mxCell>
        <mxCell id="ICYx0-klbOHn4qreJ30I-62" value="..." style="text;html=1;strokeColor=none;fillColor=none;align=left;verticalAlign=middle;spacingLeft=4;spacingRight=4;overflow=hidden;rotatable=0;points=[[0,0.5],[1,0.5]];portConstraint=eastwest;whiteSpace=wrap;" vertex="1" parent="ICYx0-klbOHn4qreJ30I-58">
          <mxGeometry y="55" width="166" height="20" as="geometry" />
        </mxCell>
        <mxCell id="ICYx0-klbOHn4qreJ30I-63" value="" style="line;strokeWidth=1;fillColor=none;align=left;verticalAlign=middle;spacingTop=-1;spacingLeft=3;spacingRight=3;rotatable=0;labelPosition=right;points=[];portConstraint=eastwest;" vertex="1" parent="ICYx0-klbOHn4qreJ30I-58">
          <mxGeometry y="75" width="166" height="8" as="geometry" />
        </mxCell>
        <mxCell id="ICYx0-klbOHn4qreJ30I-65" value="&lt;div&gt;+ exibirSaudacao( ): void&lt;/div&gt;&lt;div&gt;+ main(args: String[ ]): void&lt;/div&gt;" style="text;html=1;strokeColor=none;fillColor=none;align=left;verticalAlign=middle;spacingLeft=4;spacingRight=4;overflow=hidden;rotatable=0;points=[[0,0.5],[1,0.5]];portConstraint=eastwest;whiteSpace=wrap;" vertex="1" parent="ICYx0-klbOHn4qreJ30I-58">
          <mxGeometry y="83" width="166" height="67" as="geometry" />
        </mxCell>
        <mxCell id="ICYx0-klbOHn4qreJ30I-66" value="&lt;div style=&quot;background-color:#1e1f22;color:#bcbec4&quot;&gt;&lt;pre style=&quot;font-family:&#39;JetBrains Mono&#39;,monospace;font-size:9,8pt;&quot;&gt;SobrecargaDeMetodos&lt;/pre&gt;&lt;/div&gt;" style="swimlane;fontStyle=0;align=center;verticalAlign=top;childLayout=stackLayout;horizontal=1;startSize=55;horizontalStack=0;resizeParent=1;resizeParentMax=0;resizeLast=0;collapsible=0;marginBottom=0;html=1;whiteSpace=wrap;" vertex="1" parent="1">
          <mxGeometry x="480" y="430" width="190" height="150" as="geometry" />
        </mxCell>
        <mxCell id="ICYx0-klbOHn4qreJ30I-70" value="..." style="text;html=1;strokeColor=none;fillColor=none;align=left;verticalAlign=middle;spacingLeft=4;spacingRight=4;overflow=hidden;rotatable=0;points=[[0,0.5],[1,0.5]];portConstraint=eastwest;whiteSpace=wrap;" vertex="1" parent="ICYx0-klbOHn4qreJ30I-66">
          <mxGeometry y="55" width="190" height="20" as="geometry" />
        </mxCell>
        <mxCell id="ICYx0-klbOHn4qreJ30I-71" value="" style="line;strokeWidth=1;fillColor=none;align=left;verticalAlign=middle;spacingTop=-1;spacingLeft=3;spacingRight=3;rotatable=0;labelPosition=right;points=[];portConstraint=eastwest;" vertex="1" parent="ICYx0-klbOHn4qreJ30I-66">
          <mxGeometry y="75" width="190" height="8" as="geometry" />
        </mxCell>
        <mxCell id="ICYx0-klbOHn4qreJ30I-73" value="&lt;div&gt;+ exibir(x: int): void&lt;/div&gt;&lt;div&gt;&lt;span style=&quot;background-color: transparent; color: light-dark(rgb(0, 0, 0), rgb(255, 255, 255));&quot;&gt;+ exibir(texto: String): void&amp;nbsp;&lt;/span&gt;&lt;/div&gt;&lt;div&gt;&lt;span style=&quot;background-color: transparent; color: light-dark(rgb(0, 0, 0), rgb(255, 255, 255));&quot;&gt;+ exibir(x: int, texto: String): void&lt;/span&gt;&lt;/div&gt;&lt;div&gt;+ main(args: String[ ]): void&amp;nbsp;&lt;/div&gt;" style="text;html=1;strokeColor=none;fillColor=none;align=left;verticalAlign=middle;spacingLeft=4;spacingRight=4;overflow=hidden;rotatable=0;points=[[0,0.5],[1,0.5]];portConstraint=eastwest;whiteSpace=wrap;" vertex="1" parent="ICYx0-klbOHn4qreJ30I-66">
          <mxGeometry y="83" width="190" height="67" as="geometry" />
        </mxCell>
        <mxCell id="ICYx0-klbOHn4qreJ30I-74" value="&lt;div style=&quot;background-color:#1e1f22;color:#bcbec4&quot;&gt;&lt;pre style=&quot;font-family:&#39;JetBrains Mono&#39;,monospace;font-size:9,8pt;&quot;&gt;SobrescritaDeMetodosOverrding&lt;/pre&gt;&lt;/div&gt;" style="swimlane;fontStyle=0;align=center;verticalAlign=top;childLayout=stackLayout;horizontal=1;startSize=55;horizontalStack=0;resizeParent=1;resizeParentMax=0;resizeLast=0;collapsible=0;marginBottom=0;html=1;whiteSpace=wrap;" vertex="1" parent="1">
          <mxGeometry x="100" y="730" width="220" height="103" as="geometry" />
        </mxCell>
        <mxCell id="ICYx0-klbOHn4qreJ30I-78" value="..." style="text;html=1;strokeColor=none;fillColor=none;align=left;verticalAlign=middle;spacingLeft=4;spacingRight=4;overflow=hidden;rotatable=0;points=[[0,0.5],[1,0.5]];portConstraint=eastwest;whiteSpace=wrap;" vertex="1" parent="ICYx0-klbOHn4qreJ30I-74">
          <mxGeometry y="55" width="220" height="20" as="geometry" />
        </mxCell>
        <mxCell id="ICYx0-klbOHn4qreJ30I-79" value="" style="line;strokeWidth=1;fillColor=none;align=left;verticalAlign=middle;spacingTop=-1;spacingLeft=3;spacingRight=3;rotatable=0;labelPosition=right;points=[];portConstraint=eastwest;" vertex="1" parent="ICYx0-klbOHn4qreJ30I-74">
          <mxGeometry y="75" width="220" height="8" as="geometry" />
        </mxCell>
        <mxCell id="ICYx0-klbOHn4qreJ30I-81" value="+&amp;nbsp;&lt;span style=&quot;color: rgb(86, 168, 245); font-family: &amp;quot;JetBrains Mono&amp;quot;, monospace; background-color: rgb(30, 31, 34);&quot;&gt;emitirSom(): void&lt;/span&gt;" style="text;html=1;strokeColor=none;fillColor=none;align=left;verticalAlign=middle;spacingLeft=4;spacingRight=4;overflow=hidden;rotatable=0;points=[[0,0.5],[1,0.5]];portConstraint=eastwest;whiteSpace=wrap;" vertex="1" parent="ICYx0-klbOHn4qreJ30I-74">
          <mxGeometry y="83" width="220" height="20" as="geometry" />
        </mxCell>
        <mxCell id="ICYx0-klbOHn4qreJ30I-99" style="edgeStyle=orthogonalEdgeStyle;rounded=0;orthogonalLoop=1;jettySize=auto;html=1;" edge="1" parent="1" source="ICYx0-klbOHn4qreJ30I-82" target="ICYx0-klbOHn4qreJ30I-74">
          <mxGeometry relative="1" as="geometry">
            <Array as="points">
              <mxPoint x="180" y="850" />
              <mxPoint x="180" y="850" />
            </Array>
          </mxGeometry>
        </mxCell>
        <mxCell id="ICYx0-klbOHn4qreJ30I-100" style="edgeStyle=orthogonalEdgeStyle;rounded=0;orthogonalLoop=1;jettySize=auto;html=1;" edge="1" parent="1" source="ICYx0-klbOHn4qreJ30I-82">
          <mxGeometry relative="1" as="geometry">
            <mxPoint x="180" y="860" as="targetPoint" />
          </mxGeometry>
        </mxCell>
        <mxCell id="ICYx0-klbOHn4qreJ30I-82" value="&lt;div style=&quot;background-color:#1e1f22;color:#bcbec4&quot;&gt;&lt;pre style=&quot;font-family:&#39;JetBrains Mono&#39;,monospace;font-size:9,8pt;&quot;&gt;Cachorro&lt;/pre&gt;&lt;/div&gt;" style="swimlane;fontStyle=0;align=center;verticalAlign=top;childLayout=stackLayout;horizontal=1;startSize=55;horizontalStack=0;resizeParent=1;resizeParentMax=0;resizeLast=0;collapsible=0;marginBottom=0;html=1;whiteSpace=wrap;" vertex="1" parent="1">
          <mxGeometry x="110" y="890" width="140" height="103" as="geometry" />
        </mxCell>
        <mxCell id="ICYx0-klbOHn4qreJ30I-86" value="..." style="text;html=1;strokeColor=none;fillColor=none;align=left;verticalAlign=middle;spacingLeft=4;spacingRight=4;overflow=hidden;rotatable=0;points=[[0,0.5],[1,0.5]];portConstraint=eastwest;whiteSpace=wrap;" vertex="1" parent="ICYx0-klbOHn4qreJ30I-82">
          <mxGeometry y="55" width="140" height="20" as="geometry" />
        </mxCell>
        <mxCell id="ICYx0-klbOHn4qreJ30I-87" value="" style="line;strokeWidth=1;fillColor=none;align=left;verticalAlign=middle;spacingTop=-1;spacingLeft=3;spacingRight=3;rotatable=0;labelPosition=right;points=[];portConstraint=eastwest;" vertex="1" parent="ICYx0-klbOHn4qreJ30I-82">
          <mxGeometry y="75" width="140" height="8" as="geometry" />
        </mxCell>
        <mxCell id="ICYx0-klbOHn4qreJ30I-89" value="+&amp;nbsp;&lt;span style=&quot;color: rgb(86, 168, 245); font-family: &amp;quot;JetBrains Mono&amp;quot;, monospace; background-color: rgb(30, 31, 34);&quot;&gt;emitirSom(): void&lt;/span&gt;" style="text;html=1;strokeColor=none;fillColor=none;align=left;verticalAlign=middle;spacingLeft=4;spacingRight=4;overflow=hidden;rotatable=0;points=[[0,0.5],[1,0.5]];portConstraint=eastwest;whiteSpace=wrap;" vertex="1" parent="ICYx0-klbOHn4qreJ30I-82">
          <mxGeometry y="83" width="140" height="20" as="geometry" />
        </mxCell>
        <mxCell id="ICYx0-klbOHn4qreJ30I-104" style="edgeStyle=orthogonalEdgeStyle;rounded=0;orthogonalLoop=1;jettySize=auto;html=1;dashed=1;" edge="1" parent="1" source="ICYx0-klbOHn4qreJ30I-90" target="ICYx0-klbOHn4qreJ30I-82">
          <mxGeometry relative="1" as="geometry" />
        </mxCell>
        <mxCell id="ICYx0-klbOHn4qreJ30I-90" value="&lt;div style=&quot;background-color:#1e1f22;color:#bcbec4&quot;&gt;&lt;pre style=&quot;font-family:&#39;JetBrains Mono&#39;,monospace;font-size:9,8pt;&quot;&gt;Sobrescrita&lt;/pre&gt;&lt;/div&gt;" style="swimlane;fontStyle=0;align=center;verticalAlign=top;childLayout=stackLayout;horizontal=1;startSize=55;horizontalStack=0;resizeParent=1;resizeParentMax=0;resizeLast=0;collapsible=0;marginBottom=0;html=1;whiteSpace=wrap;" vertex="1" parent="1">
          <mxGeometry x="340" y="881.5" width="140" height="120" as="geometry" />
        </mxCell>
        <mxCell id="ICYx0-klbOHn4qreJ30I-94" value="..." style="text;html=1;strokeColor=none;fillColor=none;align=left;verticalAlign=middle;spacingLeft=4;spacingRight=4;overflow=hidden;rotatable=0;points=[[0,0.5],[1,0.5]];portConstraint=eastwest;whiteSpace=wrap;" vertex="1" parent="ICYx0-klbOHn4qreJ30I-90">
          <mxGeometry y="55" width="140" height="20" as="geometry" />
        </mxCell>
        <mxCell id="ICYx0-klbOHn4qreJ30I-95" value="" style="line;strokeWidth=1;fillColor=none;align=left;verticalAlign=middle;spacingTop=-1;spacingLeft=3;spacingRight=3;rotatable=0;labelPosition=right;points=[];portConstraint=eastwest;" vertex="1" parent="ICYx0-klbOHn4qreJ30I-90">
          <mxGeometry y="75" width="140" height="8" as="geometry" />
        </mxCell>
        <mxCell id="ICYx0-klbOHn4qreJ30I-97" value="+main(agrs string[ ]): void" style="text;html=1;strokeColor=none;fillColor=none;align=left;verticalAlign=middle;spacingLeft=4;spacingRight=4;overflow=hidden;rotatable=0;points=[[0,0.5],[1,0.5]];portConstraint=eastwest;whiteSpace=wrap;" vertex="1" parent="ICYx0-klbOHn4qreJ30I-90">
          <mxGeometry y="83" width="140" height="37" as="geometry" />
        </mxCell>
        <mxCell id="ICYx0-klbOHn4qreJ30I-102" style="edgeStyle=orthogonalEdgeStyle;rounded=0;orthogonalLoop=1;jettySize=auto;html=1;entryX=0.537;entryY=0.032;entryDx=0;entryDy=0;entryPerimeter=0;dashed=1;" edge="1" parent="1" source="ICYx0-klbOHn4qreJ30I-74" target="ICYx0-klbOHn4qreJ30I-90">
          <mxGeometry relative="1" as="geometry" />
        </mxCell>
      </root>
    </mxGraphModel>
  </diagram>
</mxfile>
